<svg xmlns="http://www.w3.org/2000/svg" width="30.701" height="20.115" viewBox="0 0 30.701 20.115">
  <g id="Group_303" data-name="Group 303" transform="translate(-0.001 -92.739)">
    <path id="Path_2520" data-name="Path 2520" d="M28.4,112.854H2.3a2.3,2.3,0,0,1-2.3-2.3V95.038a2.3,2.3,0,0,1,2.3-2.3H28.4a2.3,2.3,0,0,1,2.3,2.3v15.516A2.3,2.3,0,0,1,28.4,112.854Z" transform="translate(0 0)" fill="#d80027"/>
    <g id="Group_302" data-name="Group 302" transform="translate(9.023 96.456)">
      <path id="Path_2521" data-name="Path 2521" d="M154.894,208.168a2.67,2.67,0,0,1-2.073-.931.121.121,0,0,1,.013-.172h0a.121.121,0,0,1,.168.013,2.629,2.629,0,0,0,2.982.641,1.5,1.5,0,0,1-.839-.154c-.924-.608-.506-1.254-1.12-2.035A1.764,1.764,0,0,0,152,204.9a1.012,1.012,0,0,1-1.213-.846.065.065,0,0,0-.125-.006c-1.067,2.881,2.14,6.447,5.433,3.883A3.623,3.623,0,0,1,154.894,208.168Zm-2.4-.978a.057.057,0,0,1-.108,0l-.123-.4-.423-.015a.057.057,0,0,1-.031-.1l.347-.242-.117-.407a.057.057,0,0,1,.089-.061l.337.255.351-.236a.057.057,0,0,1,.086.066l-.139.4.333.26a.057.057,0,0,1-.036.1l-.423-.008Z" transform="translate(-150.456 -201.053)" fill="#f5f5f5"/>
      <path id="Path_2522" data-name="Path 2522" d="M250.979,213.409a2.67,2.67,0,0,1,2.217-.5.121.121,0,0,1,.093.145h0a.121.121,0,0,1-.142.09,2.629,2.629,0,0,0-2.771,1.276,1.5,1.5,0,0,1,.764-.38c1.1-.068,1.157.7,2.117.957s1.382-.089,1.995-.712a1.012,1.012,0,0,1,1.478-.05.065.065,0,0,0,.1-.07c-.875-2.945-5.579-3.875-6.676.151A3.623,3.623,0,0,1,250.979,213.409Zm2.509-.658a.057.057,0,0,1,.088-.062l.341.25.347-.242a.057.057,0,0,1,.087.065l-.133.4.337.255a.057.057,0,0,1-.035.1l-.423,0-.139.4a.057.057,0,0,1-.108,0l-.129-.4-.423-.009a.057.057,0,0,1-.032-.1l.343-.247Z" transform="translate(-244.179 -208.208)" fill="#f5f5f5"/>
      <path id="Path_2523" data-name="Path 2523" d="M214.868,160.2a2.67,2.67,0,0,1,.072-2.271.121.121,0,0,1,.164-.054h0a.121.121,0,0,1,.052.16,2.629,2.629,0,0,0,.542,3,1.505,1.505,0,0,1-.177-.835c.21-1.086.967-.945,1.456-1.81a1.764,1.764,0,0,0-.191-2.109,1.012,1.012,0,0,1,.321-1.444.065.065,0,0,0-.042-.117c-3.071.11-5.148,4.433-1.524,6.5A3.623,3.623,0,0,1,214.868,160.2Zm-.01-2.594a.057.057,0,0,1-.038-.1l.328-.268-.147-.4a.057.057,0,0,1,.084-.068l.356.229.332-.262a.057.057,0,0,1,.09.059l-.108.409.352.234a.057.057,0,0,1-.028.1l-.422.024-.114.407a.057.057,0,0,1-.108.005l-.153-.394Z" transform="translate(-209.834 -154.725)" fill="#f5f5f5"/>
      <path id="Path_2524" data-name="Path 2524" d="M256.253,261.462a2.67,2.67,0,0,1,1.17,1.948.121.121,0,0,1-.109.134h0a.121.121,0,0,1-.13-.106,2.629,2.629,0,0,0-2.081-2.23,1.505,1.505,0,0,1,.6.606c.411,1.027-.3,1.318-.244,2.31s.518,1.284,1.3,1.67a1.012,1.012,0,0,1,.512,1.388.065.065,0,0,0,.1.076c2.522-1.755,1.927-6.514-2.24-6.291A3.62,3.62,0,0,1,256.253,261.462Zm1.413,2.175a.057.057,0,0,1,.087.064l-.13.4.339.254a.057.057,0,0,1-.034.1H257.5l-.137.4a.057.057,0,0,1-.108,0l-.131-.4-.423-.006a.057.057,0,0,1-.033-.1l.342-.249-.125-.4a.057.057,0,0,1,.088-.063l.342.248Z" transform="translate(-248.827 -254.59)" fill="#f5f5f5"/>
      <path id="Path_2525" data-name="Path 2525" d="M169.669,270.189a2.67,2.67,0,0,1-1.5,1.707.121.121,0,0,1-.161-.063h0a.121.121,0,0,1,.061-.157,2.629,2.629,0,0,0,1.491-2.661,1.505,1.505,0,0,1-.394.757c-.853.7-1.347.114-2.275.47s-1.065.884-1.195,1.749a1.012,1.012,0,0,1-1.166.91.065.065,0,0,0-.043.117c2.44,1.868,6.791-.147,5.311-4.048A3.617,3.617,0,0,1,169.669,270.189Zm-1.642,2.008a.057.057,0,0,1-.035.1l-.423,0-.139.4a.057.057,0,0,1-.108,0l-.129-.4-.423-.008a.057.057,0,0,1-.032-.1l.343-.247-.123-.4a.057.057,0,0,1,.088-.062l.341.25.347-.242a.057.057,0,0,1,.087.065l-.132.4Z" transform="translate(-163.622 -262.12)" fill="#f5f5f5"/>
    </g>
  </g>
</svg>
