<svg xmlns="http://www.w3.org/2000/svg" width="21.984" height="19.322" viewBox="0 0 21.984 19.322">
  <g id="Group_292" data-name="Group 292" transform="translate(0 -31)">
    <path id="Path_2516" data-name="Path 2516" d="M20.052,211H1.932A1.934,1.934,0,0,0,0,212.932V216.8a1.934,1.934,0,0,0,1.932,1.932H4.551v-.644a1.934,1.934,0,0,1,1.932-1.932H15.5a1.934,1.934,0,0,1,1.932,1.932v.644h2.619a1.934,1.934,0,0,0,1.932-1.932v-3.864A1.934,1.934,0,0,0,20.052,211Zm-6.484,3.22a.644.644,0,1,1,.644-.644A.644.644,0,0,1,13.568,214.22Zm2.576,0a.644.644,0,1,1,.644-.644A.644.644,0,0,1,16.144,214.22Z" transform="translate(0 -172.271)" fill="#026195"/>
    <path id="Path_2517" data-name="Path 2517" d="M331,32.518v2.511h2.511A3.229,3.229,0,0,0,331,32.518Z" transform="translate(-316.788 -1.453)" fill="#026195"/>
    <path id="Path_2518" data-name="Path 2518" d="M121.644,31a.644.644,0,0,0-.644.644v5.8h11.593V34.864h-3.22a.644.644,0,0,1-.644-.644V31Z" transform="translate(-115.805)" fill="#026195"/>
    <path id="Path_2519" data-name="Path 2519" d="M145.661,366.152a.644.644,0,0,0,.644-.644v-3.864a.644.644,0,0,0-.644-.644h-9.017a.644.644,0,0,0-.644.644v3.864a.644.644,0,0,0,.644.644Zm-7.085-3.22h5.152a.644.644,0,0,1,0,1.288h-5.152a.644.644,0,1,1,0-1.288Z" transform="translate(-130.161 -315.831)" fill="#026195"/>
  </g>
</svg>
