<svg xmlns="http://www.w3.org/2000/svg" width="30.905" height="20.248" viewBox="0 0 30.905 20.248">
  <g id="Group_316" data-name="Group 316" transform="translate(0 -88.276)">
    <path id="Path_2535" data-name="Path 2535" d="M28.591,88.276H2.315A2.315,2.315,0,0,0,0,90.591v4.435H30.905V90.591A2.315,2.315,0,0,0,28.591,88.276Z" fill="#d80027"/>
    <path id="Path_2536" data-name="Path 2536" d="M0,316.343a2.315,2.315,0,0,0,2.315,2.315H28.591a2.315,2.315,0,0,0,2.315-2.315v-4.435H0Z" transform="translate(0 -210.133)"/>
    <rect id="Rectangle_115" data-name="Rectangle 115" width="30.905" height="6.749" transform="translate(0 95.025)" fill="#f5f5f5"/>
    <path id="Path_2537" data-name="Path 2537" d="M231.216,213.474a.387.387,0,0,0-.51-.367l-.471.157-.114-.691a.848.848,0,0,0-.839-.711h-.441l-.461.567h.61l-.171.843-.5-.166a.387.387,0,0,0-.51.367v2.866l.686-.686-.323.969h-.363v.567h3.4v-.567h-.363l-.323-.969.686.686v-2.866Zm-1.985,3.149h-.457l.314-.84.143.182v.657Zm.567,0v-.657l.143-.182.314.84Zm-.284-1.028a2.085,2.085,0,0,1-.842-1.7.908.908,0,0,1,1.684,0A2.085,2.085,0,0,1,229.514,215.6Z" transform="translate(-214.062 -116.126)" fill="#f0c727"/>
  </g>
</svg>
