<svg xmlns="http://www.w3.org/2000/svg" width="107" height="200" viewBox="0 0 107 200">
  <g id="Group" transform="translate(530.795 1558.249)" opacity="0.05">
    <circle id="Ellipse" cx="7" cy="7" r="7" transform="translate(-437.795 -1558.249)" fill="#0e88ca"/>
    <circle id="Ellipse-2" data-name="Ellipse" cx="7" cy="7" r="7" transform="translate(-437.795 -1434.249)" fill="#0e88ca"/>
    <circle id="Ellipse-3" data-name="Ellipse" cx="7" cy="7" r="7" transform="translate(-437.795 -1496.249)" fill="#0e88ca"/>
    <circle id="Ellipse-4" data-name="Ellipse" cx="7" cy="7" r="7" transform="translate(-437.795 -1372.249)" fill="#0e88ca"/>
    <circle id="Ellipse-5" data-name="Ellipse" cx="7" cy="7" r="7" transform="translate(-437.795 -1527.249)" fill="#0e88ca"/>
    <circle id="Ellipse-6" data-name="Ellipse" cx="7" cy="7" r="7" transform="translate(-437.795 -1403.249)" fill="#0e88ca"/>
    <circle id="Ellipse-7" data-name="Ellipse" cx="7" cy="7" r="7" transform="translate(-437.795 -1465.249)" fill="#0e88ca"/>
    <circle id="Ellipse-8" data-name="Ellipse" cx="7" cy="7" r="7" transform="translate(-499.795 -1558.249)" fill="#0e88ca"/>
    <circle id="Ellipse-9" data-name="Ellipse" cx="7" cy="7" r="7" transform="translate(-499.795 -1434.249)" fill="#0e88ca"/>
    <circle id="Ellipse-10" data-name="Ellipse" cx="7" cy="7" r="7" transform="translate(-499.795 -1496.249)" fill="#0e88ca"/>
    <circle id="Ellipse-11" data-name="Ellipse" cx="7" cy="7" r="7" transform="translate(-499.795 -1372.249)" fill="#0e88ca"/>
    <circle id="Ellipse-12" data-name="Ellipse" cx="7" cy="7" r="7" transform="translate(-499.795 -1527.249)" fill="#0e88ca"/>
    <circle id="Ellipse-13" data-name="Ellipse" cx="7" cy="7" r="7" transform="translate(-499.795 -1403.249)" fill="#0e88ca"/>
    <circle id="Ellipse-14" data-name="Ellipse" cx="7" cy="7" r="7" transform="translate(-499.795 -1465.249)" fill="#0e88ca"/>
    <circle id="Ellipse-15" data-name="Ellipse" cx="7" cy="7" r="7" transform="translate(-468.795 -1558.249)" fill="#0e88ca"/>
    <circle id="Ellipse-16" data-name="Ellipse" cx="7" cy="7" r="7" transform="translate(-468.795 -1434.249)" fill="#0e88ca"/>
    <circle id="Ellipse-17" data-name="Ellipse" cx="7" cy="7" r="7" transform="translate(-468.795 -1496.249)" fill="#0e88ca"/>
    <circle id="Ellipse-18" data-name="Ellipse" cx="7" cy="7" r="7" transform="translate(-468.795 -1372.249)" fill="#0e88ca"/>
    <circle id="Ellipse-19" data-name="Ellipse" cx="7" cy="7" r="7" transform="translate(-468.795 -1527.249)" fill="#0e88ca"/>
    <circle id="Ellipse-20" data-name="Ellipse" cx="7" cy="7" r="7" transform="translate(-468.795 -1403.249)" fill="#0e88ca"/>
    <circle id="Ellipse-21" data-name="Ellipse" cx="7" cy="7" r="7" transform="translate(-468.795 -1465.249)" fill="#0e88ca"/>
    <circle id="Ellipse-22" data-name="Ellipse" cx="7" cy="7" r="7" transform="translate(-530.795 -1558.249)" fill="#0e88ca"/>
    <circle id="Ellipse-23" data-name="Ellipse" cx="7" cy="7" r="7" transform="translate(-530.795 -1434.249)" fill="#0e88ca"/>
    <circle id="Ellipse-24" data-name="Ellipse" cx="7" cy="7" r="7" transform="translate(-530.795 -1496.249)" fill="#0e88ca"/>
    <circle id="Ellipse-25" data-name="Ellipse" cx="7" cy="7" r="7" transform="translate(-530.795 -1372.249)" fill="#0e88ca"/>
    <circle id="Ellipse-26" data-name="Ellipse" cx="7" cy="7" r="7" transform="translate(-530.795 -1527.249)" fill="#0e88ca"/>
    <circle id="Ellipse-27" data-name="Ellipse" cx="7" cy="7" r="7" transform="translate(-530.795 -1403.249)" fill="#0e88ca"/>
    <circle id="Ellipse-28" data-name="Ellipse" cx="7" cy="7" r="7" transform="translate(-530.795 -1465.249)" fill="#0e88ca"/>
  </g>
</svg>
