<svg xmlns="http://www.w3.org/2000/svg" width="125.354" height="29.405" viewBox="0 0 125.354 29.405">
  <g id="logo-footer" transform="translate(-272.747 -1097.737)">
    <g id="Group" transform="translate(203.018 1081.748)">
      <path id="Path" d="M1122.457,1253.438h-8.375v-6.444h-2.134v14.9h2.134v-6.487h8.375v6.487h2.134v-14.9h-2.134Zm-18.426,6.668a5.934,5.934,0,0,1-4.257-1.579,5.7,5.7,0,0,1,.027-8.082,5.907,5.907,0,0,1,4.251-1.616,10.27,10.27,0,0,1,5.11,1.494v-2.294a13.428,13.428,0,0,0-5.217-1.227,7.963,7.963,0,0,0-5.724,2.219,7.273,7.273,0,0,0-2.321,5.473,7.5,7.5,0,0,0,1.014,3.809,7.386,7.386,0,0,0,2.753,2.764,8.351,8.351,0,0,0,4.236,1,11.135,11.135,0,0,0,5.42-1.28v-2.347A9.655,9.655,0,0,1,1104.031,1260.106Zm-18.479,1.771h8.653v-1.9h-6.519v-4.631h6.1v-1.91h-6.1v-4.545H1094v-1.9h-8.45Zm-14.468-13.006h5.111V1261.9h2.144v-13.027h5.2v-1.9h-12.451Z" transform="translate(-1001.355 -1230.813)" fill="#fff"/>
      <path id="Path_" data-name="Path " d="M1827.18,1247.971l-4.956,5.9-4.983-5.9h-1.393l5.794,6.9v8h1.152v-8l5.794-6.9Zm-20.294,0v14.9h8.3v-.96h-7.148v-6.05h6.8v-.971h-6.8v-5.964h6.977v-.96Zm-10.274,0v14.9h8.525v-.96h-7.373v-13.944Zm-10.253,0v14.9h8.525v-.96h-7.372v-13.944Zm-12.221,8.792,3.2-7.02,3.212,7.02Zm2.895-8.9-6.89,15.012h1.209l2.349-5.153h7.289l2.358,5.153h1.209l-6.891-15.012Zm-6.89.107-5.244,12.611-5.282-12.611h-1.168l6.27,15.054h.341l6.246-15.054Z" transform="translate(-1633.505 -1231.789)" fill="#fff"/>
      <path id="Path-2" data-name="Path" d="M1244.164,1511.223l1.7,3.989.057.206-.066.188a2.406,2.406,0,0,1-.7.876,2.236,2.236,0,0,1-.73.385l.209.662a2.316,2.316,0,0,0,1.023-.51,6.51,6.51,0,0,0,1.574-2.71l1.25-3.086h-.881l-.91,2.54c-.113.313-.208.644-.294.9h-.019c-.076-.259-.189-.6-.294-.886l-1-2.558Zm-1.6,2.486a1.3,1.3,0,0,1-.066.421,1.215,1.215,0,0,1-1.156.805,1.379,1.379,0,0,1-1.355-1.557c0-1,.569-1.636,1.365-1.636a1.192,1.192,0,0,1,1.166.832,1.06,1.06,0,0,1,.047.358Zm.133-2.486-.038.653h-.019a1.542,1.542,0,0,0-1.431-.751,2.126,2.126,0,0,0-2.066,2.3,1.98,1.98,0,0,0,1.952,2.111,1.663,1.663,0,0,0,1.46-.725h.019v.483a1.34,1.34,0,0,1-1.479,1.511,2.707,2.707,0,0,1-1.346-.34l-.208.6a3.1,3.1,0,0,0,1.526.358,2.527,2.527,0,0,0,1.668-.519,2.4,2.4,0,0,0,.654-1.977v-2.513c0-.527.019-.876.038-1.189Zm-6.5.492a1.494,1.494,0,0,1,1.374,1.663,1.416,1.416,0,1,1-2.786.018A1.492,1.492,0,0,1,1236.191,1511.715Zm.019-.591a2.173,2.173,0,0,0-2.275,2.3,2.115,2.115,0,0,0,2.2,2.228,2.179,2.179,0,0,0,2.284-2.3A2.106,2.106,0,0,0,1236.211,1511.124Zm-4.18,4.427h.834V1509.2h-.834Zm-3.28-3.837a1.494,1.494,0,0,1,1.374,1.663,1.416,1.416,0,1,1-2.786.018A1.492,1.492,0,0,1,1228.75,1511.715Zm.019-.591a2.173,2.173,0,0,0-2.275,2.3,2.115,2.115,0,0,0,2.2,2.228,2.179,2.179,0,0,0,2.284-2.3A2.106,2.106,0,0,0,1228.769,1511.124Zm-7.2,4.427h.834v-2.6a1.075,1.075,0,0,1,.057-.366,1.176,1.176,0,0,1,1.118-.805c.787,0,1.062.582,1.062,1.279v2.5h.834v-2.585a1.609,1.609,0,0,0-1.62-1.843,1.7,1.7,0,0,0-1.516.814h-.019l-.047-.716h-.739c.029.358.038.724.038,1.172Zm-5.261,0h.834v-2.612a.9.9,0,0,1,.057-.376,1.19,1.19,0,0,1,1.118-.787c.787,0,1.062.591,1.062,1.288v2.487h.834v-2.576a1.609,1.609,0,0,0-1.6-1.852,1.8,1.8,0,0,0-.853.223,1.512,1.512,0,0,0-.6.555h-.019v-2.7h-.834Zm-1.12-.751a2.485,2.485,0,0,1-1.023.215,1.628,1.628,0,0,1,.028-3.256,2.027,2.027,0,0,1,.967.206l.189-.608a2.926,2.926,0,0,0-1.156-.224,2.269,2.269,0,0,0-2.464,2.3,2.117,2.117,0,0,0,2.284,2.209,3.238,3.238,0,0,0,1.317-.25Zm-7.4-1.833a1.338,1.338,0,0,1,1.279-1.279,1.14,1.14,0,0,1,1.156,1.279Zm3.213.564a2.85,2.85,0,0,0,.029-.367,1.869,1.869,0,0,0-1.9-2.039,2.149,2.149,0,0,0-2.152,2.335,2.069,2.069,0,0,0,2.256,2.182,3.918,3.918,0,0,0,1.526-.268l-.143-.564a3.165,3.165,0,0,1-1.27.224,1.432,1.432,0,0,1-1.573-1.5Zm-6.483,2.021h.834v-5.366h1.952v-.661h-4.729v.661h1.943Zm-10.361-4.329,1.384,4.329h.758l.739-2.057a12.223,12.223,0,0,0,.417-1.431h.019a13.752,13.752,0,0,0,.408,1.422l.7,2.066h.758l1.478-4.329h-.824l-.654,2.174a12.246,12.246,0,0,0-.35,1.4h-.029c-.1-.438-.237-.894-.408-1.413l-.711-2.165h-.7l-.748,2.209c-.152.465-.3.93-.408,1.368h-.028c-.085-.448-.209-.894-.341-1.378l-.606-2.2Zm-3.754,1.744a1.337,1.337,0,0,1,1.279-1.279,1.14,1.14,0,0,1,1.156,1.279Zm3.213.564a2.823,2.823,0,0,0,.029-.367,1.869,1.869,0,0,0-1.9-2.039,2.149,2.149,0,0,0-2.151,2.335,2.069,2.069,0,0,0,2.255,2.182,3.919,3.919,0,0,0,1.526-.268l-.143-.564a3.165,3.165,0,0,1-1.27.224,1.432,1.432,0,0,1-1.573-1.5Zm-9.118,2.021v-2.576c0-1-.019-1.726-.067-2.487l.029-.009a18.76,18.76,0,0,0,1.194,2.012l2.028,3.059h.834v-6.028h-.777v2.522c0,.939.019,1.673.1,2.477l-.019.009a16.758,16.758,0,0,0-1.146-1.959l-2.048-3.05h-.9v6.028Zm-7.887-4.329,1.7,3.989.057.206-.066.188a2.408,2.408,0,0,1-.7.876,2.237,2.237,0,0,1-.73.385l.209.662a2.314,2.314,0,0,0,1.023-.51,6.509,6.509,0,0,0,1.573-2.71l1.251-3.086h-.882l-.91,2.54c-.114.313-.209.644-.294.9h-.019c-.076-.259-.189-.6-.294-.886l-1-2.558Zm-1.63,4.329h.834V1509.2h-.834Zm-2.209-1.843a1.3,1.3,0,0,1-.066.421,1.215,1.215,0,0,1-1.156.805,1.379,1.379,0,0,1-1.355-1.557c0-1,.568-1.636,1.365-1.636a1.192,1.192,0,0,1,1.166.832,1.06,1.06,0,0,1,.047.358Zm.133-2.486-.038.653h-.019a1.542,1.542,0,0,0-1.431-.751,2.126,2.126,0,0,0-2.066,2.3,1.98,1.98,0,0,0,1.952,2.111,1.663,1.663,0,0,0,1.46-.725h.019v.483a1.34,1.34,0,0,1-1.478,1.511,2.709,2.709,0,0,1-1.346-.34l-.209.6a3.1,3.1,0,0,0,1.526.358,2.527,2.527,0,0,0,1.668-.519,2.4,2.4,0,0,0,.654-1.977v-2.513c0-.527.019-.876.038-1.189Zm-8.483,4.329h.834v-2.6a1.075,1.075,0,0,1,.057-.366,1.176,1.176,0,0,1,1.118-.805c.787,0,1.062.582,1.062,1.279v2.5h.834v-2.585a1.609,1.609,0,0,0-1.62-1.843,1.7,1.7,0,0,0-1.516.814h-.019l-.047-.716h-.739c.029.358.038.724.038,1.172Zm-1.8-6.037a.494.494,0,0,0-.521.492.517.517,0,1,0,.521-.492Zm.417,6.037v-4.329h-.834v4.329Zm-3.052-1.816a1.285,1.285,0,0,1-.038.34,1.24,1.24,0,0,1-1.222.939c-.9,0-1.355-.724-1.355-1.6,0-.957.512-1.672,1.374-1.672a1.212,1.212,0,0,1,1.2.912l.038.331Zm0-4.535v2.585h-.019a1.559,1.559,0,0,0-1.384-.662,2.115,2.115,0,0,0-2.057,2.325,2.016,2.016,0,0,0,1.962,2.2,1.715,1.715,0,0,0,1.564-.85h.019l.038.751h.748c-.028-.295-.038-.733-.038-1.118V1509.2Zm-7.4,3.766a1.337,1.337,0,0,1,1.279-1.279,1.14,1.14,0,0,1,1.156,1.279Zm3.213.564a2.828,2.828,0,0,0,.029-.367,1.869,1.869,0,0,0-1.9-2.039,2.149,2.149,0,0,0-2.152,2.335,2.069,2.069,0,0,0,2.256,2.182,3.919,3.919,0,0,0,1.526-.268l-.143-.564a3.164,3.164,0,0,1-1.27.224,1.432,1.432,0,0,1-1.573-1.5Zm-7.962-.564a1.337,1.337,0,0,1,1.279-1.279,1.141,1.141,0,0,1,1.156,1.279Zm3.213.564a2.855,2.855,0,0,0,.028-.367,1.869,1.869,0,0,0-1.9-2.039,2.149,2.149,0,0,0-2.151,2.335,2.069,2.069,0,0,0,2.255,2.182,3.918,3.918,0,0,0,1.526-.268l-.142-.564a3.165,3.165,0,0,1-1.27.224,1.432,1.432,0,0,1-1.573-1.5Zm-4.75,1.27a2.485,2.485,0,0,1-1.023.215,1.628,1.628,0,0,1,.028-3.256,2.024,2.024,0,0,1,.967.206l.19-.608a2.925,2.925,0,0,0-1.156-.224,2.269,2.269,0,0,0-2.464,2.3,2.117,2.117,0,0,0,2.284,2.209,3.236,3.236,0,0,0,1.317-.25Zm-7.915-3.578,1.554,2.12-1.63,2.209h.919l.663-.975c.171-.259.332-.492.483-.751h.019c.161.259.313.5.493.751l.673.975h.948l-1.612-2.236,1.564-2.093h-.9l-.645.921c-.152.232-.3.456-.455.716h-.028c-.152-.242-.294-.465-.465-.707l-.654-.93Zm-.787.859H1135.1v-1.905h2.625v-.652h-3.449v6.028h3.592v-.653H1135.1v-2.173h2.483Z" transform="translate(-1059.475 -1472.134)" fill="#fff"/>
    </g>
  </g>
</svg>
