<svg xmlns="http://www.w3.org/2000/svg" width="21.333" height="16" viewBox="0 0 21.333 16">
  <g id="Group_309" data-name="Group 309" transform="translate(0 -64)">
    <g id="Group_308" data-name="Group 308" transform="translate(0 64)">
      <g id="Group_307" data-name="Group 307">
        <path id="Path_2529" data-name="Path 2529" d="M13.927,65.029l7.322,5.957a.421.421,0,0,0,.079.051.67.67,0,0,0,.308.075.72.72,0,0,0,.391-.129l7.316-5.953a.444.444,0,0,0-.027-.709A1.766,1.766,0,0,0,28.3,64H14.968a1.764,1.764,0,0,0-1.014.319.444.444,0,0,0-.026.709Z" transform="translate(-13.19 -64)" fill="#026195"/>
        <path id="Path_2530" data-name="Path 2530" d="M10.667,122.616a5.784,5.784,0,0,1,5.778-5.778.444.444,0,0,0,.444-.444v-2.379a.445.445,0,0,0-.253-.4.449.449,0,0,0-.471.057l-6.819,5.549-.078.052a1.551,1.551,0,0,1-1.721-.051l-6.821-5.55a.444.444,0,0,0-.725.345v8.157a1.78,1.78,0,0,0,1.778,1.778h8.515a.444.444,0,0,0,.44-.507A5.769,5.769,0,0,1,10.667,122.616Z" transform="translate(0 -111.505)" fill="#026195"/>
        <path id="Path_2531" data-name="Path 2531" d="M282.223,213.333a4.889,4.889,0,1,0,4.889,4.889A4.894,4.894,0,0,0,282.223,213.333Zm2.092,6.092-1.777,1.777a.446.446,0,0,1-.63,0l-1.777-1.777a.444.444,0,1,1,.628-.628l1.019,1.019v-4.26a.444.444,0,1,1,.889,0v4.26l1.019-1.019a.444.444,0,0,1,.628.628Z" transform="translate(-265.778 -207.111)" fill="#026195"/>
      </g>
    </g>
  </g>
</svg>
